<?xml version="1.0" encoding="utf-8"?>
<!-- Generator: Adobe Illustrator 25.0.1, SVG Export Plug-In . SVG Version: 6.00 Build 0)  -->
<svg version="1.0" id="Layer_1" xmlns="http://www.w3.org/2000/svg" xmlns:xlink="http://www.w3.org/1999/xlink" x="0px" y="0px"
	 viewBox="0 0 1286.2 874.7" style="enable-background:new 0 0 1286.2 874.7;" xml:space="preserve">
<style type="text/css">
	.st0{fill-rule:evenodd;clip-rule:evenodd;}
</style>
<path id="_Maps" class="st0" d="M299.8,330.6c7.3-8.8,12.6-21.1,12.6-33.4c0-1.7-0.2-3.3-0.5-4.7c-12,0.5-26.4,8-35.1,18.2
	c-6.8,7.7-13.1,19.9-13.1,32.3c0,1.8,0.3,3.6,0.5,4.2c1.1,0.2,2.1,0.3,3.2,0.3C278.2,347.6,291.7,340.4,299.8,330.6z M308.3,350.2
	c-18.1,0-32.8,10.9-42,10.9c-10,0-23.2-10.3-38.8-10.3c-29.7,0-59.9,24.6-59.9,71c0,28.8,11.2,59.3,25,79.1
	c11.8,16.7,22.2,30.4,37,30.4c14.7,0,21.2-9.9,39.6-9.9c18.7,0,22.8,9.6,39.2,9.6c16.1,0,26.9-14.9,37-29.4
	c11.4-16.7,16.1-33.1,16.4-33.8c-1.1-0.3-31.9-12.9-31.9-48.3c0-30.7,24.3-44.5,25.6-45.5C339.4,350.8,315,350.2,308.3,350.2
	L308.3,350.2z M627.2,529.6v-219H582l-67.1,167.1h-1.2l-67.1-167.1h-45.4v219h35.4V374.2h1.1l63.3,155.4h26.7l63.3-155.4h1.1v155.4
	H627.2z M701,532.2c20.6,0,40.8-10.8,50.1-28.2h0.8v25.6h36.4V418.8c0-32.3-26-53.4-65.9-53.4c-41,0-66.6,21.5-68.3,51.6h35.1
	c2.4-13.4,13.8-22,31.7-22c18.7,0,30,9.7,30,26.6v11.5l-42.5,2.4c-39.2,2.4-61.2,19.6-61.2,48.1C647.2,512.6,669.9,532.2,701,532.2
	L701,532.2z M712.4,503.7c-16.4,0-27.3-8.3-27.3-21.5c0-12.7,10.5-20.9,28.7-22.2l37.2-2.3V470C750.9,489.4,733.7,503.7,712.4,503.7
	z M902.2,366c-23.4,0-41.6,11.8-50.7,30.5h-0.8v-27.8h-36.9v213.8h37.8v-79.7h0.8c8.8,18.1,27,29.3,50.4,29.3
	c40.4,0,66.2-31.7,66.2-83C969,397.7,943.1,366,902.2,366z M890.7,501.2c-23.5,0-39.2-20.5-39.3-52.1c0.2-31.3,15.8-52.1,39.3-52.1
	c24.4,0,39.6,20.3,39.6,52.1C930.3,481,915.1,501.2,890.7,501.2z M985.7,414.9c0,23.8,15.5,39,46.3,45.8l26.7,5.9
	c16.8,3.8,22.6,9.3,22.6,19c0,12-11.4,19.6-29.7,19.6c-19.1,0-29.9-7.9-32.8-23.5h-37.2c3,31.1,27.9,51.1,70,51.1
	c39.5,0,67.4-20.5,67.4-50.8c0-23.4-12.9-36.3-46.3-43.7l-26.7-5.9c-16.8-3.8-23.5-10.2-23.5-19.4c0-11.8,11.1-19.7,27.8-19.7
	c17.5,0,28.2,9.3,29.7,23.8h35.2c-0.9-30.5-25.8-51.6-65-51.6C1011.4,365.4,985.7,385.4,985.7,414.9L985.7,414.9z"/>
</svg>
